<svg width="48" height="48" viewBox="0 0 48 48" fill="none" xmlns="http://www.w3.org/2000/svg">
<path fill-rule="evenodd" clip-rule="evenodd" d="M14.992 6H33.01C37.974 6 42 10.024 42 14.992V33.01C42 37.974 37.976 42 33.008 42H14.992C10.026 42 6 37.976 6 33.008V14.992C6 10.026 10.024 6 14.992 6V6Z" stroke="#0E0E0E" stroke-width="2" stroke-linecap="round" stroke-linejoin="round"/>
<path d="M33.898 13.426C33.526 13.428 33.224 13.73 33.224 14.102C33.224 14.474 33.528 14.776 33.9 14.776C34.272 14.776 34.574 14.474 34.574 14.102C34.576 13.728 34.272 13.426 33.898 13.426" stroke="#0E0E0E" stroke-width="2" stroke-linecap="round" stroke-linejoin="round"/>
<path d="M29.0912 18.9089C31.903 21.7207 31.903 26.2794 29.0912 29.0912C26.2794 31.903 21.7207 31.903 18.9089 29.0912C16.0971 26.2794 16.0971 21.7207 18.9089 18.9089C21.7207 16.0971 26.2794 16.0971 29.0912 18.9089" stroke="#0E0E0E" stroke-width="2" stroke-linecap="round" stroke-linejoin="round"/>
</svg>
