<svg width="48" height="48" viewBox="0 0 48 48" fill="none" xmlns="http://www.w3.org/2000/svg">
<path fill-rule="evenodd" clip-rule="evenodd" d="M15 6H33.008C37.974 6 42 10.026 42 14.992V33.01C42 37.974 37.974 42 33.008 42H14.992C10.026 42 6 37.974 6 33.008V15C6 10.03 10.03 6 15 6V6Z" stroke="#0E0E0E" stroke-width="2" stroke-linecap="round" stroke-linejoin="round"/>
<path d="M16.24 22.2V33" stroke="#0E0E0E" stroke-width="2" stroke-linecap="round" stroke-linejoin="round"/>
<path d="M23.438 33V26.7C23.438 24.214 25.452 22.2 27.938 22.2V22.2C30.424 22.2 32.438 24.214 32.438 26.7V33" stroke="#0E0E0E" stroke-width="2" stroke-linecap="round" stroke-linejoin="round"/>
<path d="M16.236 15.676C15.988 15.676 15.786 15.878 15.788 16.126C15.788 16.374 15.99 16.576 16.238 16.576C16.486 16.576 16.688 16.374 16.688 16.126C16.688 15.876 16.486 15.676 16.236 15.676" stroke="#0E0E0E" stroke-width="2" stroke-linecap="round" stroke-linejoin="round"/>
</svg>
